<?xml version="1.0" standalone="no"?>
<!DOCTYPE svg PUBLIC "-//W3C//DTD SVG 20010904//EN"
 "http://www.w3.org/TR/2001/REC-SVG-20010904/DTD/svg10.dtd">
<svg version="1.0" xmlns="http://www.w3.org/2000/svg"
 width="2000.000000pt" height="2000.000000pt" viewBox="0 0 2000.000000 2000.000000"
 preserveAspectRatio="xMidYMid meet">
<metadata>
Created by potrace 1.14, written by Peter Selinger 2001-2017
</metadata>
<g transform="translate(0.000000,2000.000000) scale(0.100000,-0.100000)"
fill="#000000" stroke="none">
<path d="M8227 17464 c-1 -1 -81 -4 -177 -8 -96 -4 -188 -9 -205 -11 -16 -2
-59 -7 -95 -10 -312 -29 -717 -124 -1020 -240 -135 -52 -323 -139 -430 -200
-36 -21 -83 -48 -105 -60 -264 -150 -621 -456 -840 -720 -28 -33 -53 -62 -56
-65 -3 -3 -32 -41 -65 -85 -32 -44 -62 -82 -65 -85 -10 -8 -153 -229 -213
-330 -48 -80 -212 -400 -254 -495 -66 -150 -162 -401 -214 -560 -23 -70 -106
-351 -113 -380 -2 -11 -25 -103 -51 -205 -51 -205 -48 -195 -70 -300 -9 -41
-20 -93 -24 -115 -39 -181 -83 -421 -119 -645 -36 -224 -50 -323 -66 -465 -3
-27 -8 -66 -10 -85 -9 -70 -25 -247 -30 -325 -3 -44 -8 -93 -10 -110 -27 -196
-27 -1302 0 -1446 2 -8 6 -55 10 -105 3 -49 8 -100 10 -114 3 -14 7 -52 11
-85 6 -62 49 -376 59 -430 11 -61 37 -201 42 -225 29 -159 95 -429 154 -633
212 -735 544 -1443 977 -2081 63 -94 119 -175 124 -180 5 -6 50 -65 100 -131
116 -153 148 -191 289 -350 647 -725 1392 -1202 2284 -1460 50 -15 100 -29
113 -31 13 -3 69 -16 125 -29 100 -25 279 -59 367 -70 25 -3 70 -10 100 -15
30 -5 93 -12 140 -16 47 -3 88 -8 91 -10 42 -24 958 -24 1086 0 10 2 61 7 113
11 52 4 102 8 110 10 8 2 44 6 80 10 156 15 638 97 774 130 33 8 72 16 86 19
14 2 116 27 225 55 877 227 1721 591 2590 1119 126 77 477 306 580 378 207
147 274 196 435 317 162 123 375 290 390 307 3 3 28 23 55 45 109 86 398 337
565 490 388 355 795 848 1000 1210 106 186 199 380 263 545 76 196 137 415
172 617 8 49 17 98 19 109 11 53 28 297 29 406 3 335 -47 703 -139 1005 -14
45 -27 90 -29 100 -2 10 -19 63 -38 118 -228 654 -617 1305 -1206 2015 -108
131 -273 321 -342 395 -25 28 -79 86 -120 130 -88 95 -401 409 -514 515 -583
547 -1223 1021 -1928 1429 -87 50 -160 91 -162 91 -2 0 -32 16 -67 36 -239
137 -800 399 -1110 520 -51 19 -106 42 -123 49 -16 7 -95 37 -175 65 -80 28
-167 60 -195 70 -56 21 -306 102 -460 149 -81 24 -289 82 -460 126 -187 49
-587 139 -715 161 -14 2 -45 9 -70 14 -25 5 -61 12 -80 15 -19 3 -71 12 -115
20 -44 8 -98 17 -120 20 -22 3 -49 7 -61 9 -12 2 -45 7 -75 11 -30 3 -65 8
-79 10 -14 2 -50 6 -80 10 -30 4 -66 8 -80 10 -14 2 -63 7 -110 10 -47 4 -87
9 -90 10 -10 6 -586 25 -593 19z"/>
</g>
</svg>
